<?xml version="1.0" encoding="utf-8"?>
<!-- Generator: Adobe Illustrator 16.0.0, SVG Export Plug-In . SVG Version: 6.00 Build 0)  -->
<!DOCTYPE svg PUBLIC "-//W3C//DTD SVG 1.1//EN" "http://www.w3.org/Graphics/SVG/1.1/DTD/svg11.dtd">
<svg version="1.1" id="Layer_1" xmlns="http://www.w3.org/2000/svg" xmlns:xlink="http://www.w3.org/1999/xlink" x="0px" y="0px"
	 width="24px" height="24px" viewBox="0 -3 24 24" enable-background="new 0 -3 24 24" xml:space="preserve">
<path fill="#C3C3C3" d="M16,8.5h-0.5v-2C15.5,4.57,13.93,3,12,3c-1.93,0-3.5,1.57-3.5,3.5v2H8c-0.552,0-1,0.447-1,1V14
	c0,0.553,0.448,1,1,1h8c0.553,0,1-0.447,1-1V9.5C17,8.947,16.553,8.5,16,8.5z M10.5,8.5v-2C10.5,5.673,11.173,5,12,5
	s1.5,0.673,1.5,1.5v2H10.5z"/>
</svg>
