<?xml version="1.0" encoding="utf-8"?>
<!-- Generator: Adobe Illustrator 16.0.0, SVG Export Plug-In . SVG Version: 6.00 Build 0)  -->
<!DOCTYPE svg PUBLIC "-//W3C//DTD SVG 1.1//EN" "http://www.w3.org/Graphics/SVG/1.1/DTD/svg11.dtd">
<svg version="1.1" xmlns="http://www.w3.org/2000/svg" xmlns:xlink="http://www.w3.org/1999/xlink" x="0px" y="0px" width="720px"
	 height="480px" viewBox="0 0 720 480" enable-background="new 0 0 720 480" xml:space="preserve">
<g id="colors">
</g>
<g id="donuts" display="none">
</g>
<g id="hidden">
</g>
<g id="cuts">
</g>
<g id="guides" display="none">
</g>
<g id="harmonies">
	<g>
		<path fill="#900C3F" d="M77.574,77.572l21.213,21.214c3.668-3.668,8.283-6.389,13.445-7.769l-7.766-28.982
			C94.141,64.795,84.911,70.236,77.574,77.572z"/>
		<path fill="#FF5733" d="M127.767,91.018c5.163,1.38,9.777,4.101,13.445,7.769l21.214-21.214
			c-7.337-7.336-16.567-12.777-26.893-15.537L127.767,91.018z"/>
		<path fill="#3D3D6B" d="M89.999,120c0-2.686,0.355-5.288,1.018-7.765l-28.983-7.767c-1.324,4.955-2.034,10.16-2.034,15.531
			s0.71,10.576,2.034,15.531l28.983-7.767C90.354,125.288,89.999,122.686,89.999,120z"/>
		<path fill="#FFC300" d="M150,120c0,2.686-0.355,5.288-1.017,7.765l28.982,7.767C179.29,130.576,180,125.371,180,120
			s-0.71-10.576-2.034-15.531l-28.982,7.767C149.645,114.712,150,117.314,150,120z"/>
		<path fill="#511849" d="M91.017,112.232c1.38-5.162,4.101-9.776,7.769-13.445L77.572,77.574
			c-7.337,7.338-12.778,16.567-15.538,26.893L91.017,112.232z"/>
		<path fill="#FF8D1A" d="M162.427,77.574l-21.213,21.213c3.668,3.669,6.389,8.283,7.769,13.445l28.982-7.766
			C175.205,94.142,169.764,84.911,162.427,77.574z"/>
		<path fill="#2A7B9B" d="M98.785,141.212c-3.668-3.668-6.389-8.282-7.769-13.444l-28.982,7.766
			c2.76,10.325,8.201,19.555,15.538,26.893L98.785,141.212z"/>
		<path fill="#C70039" d="M112.234,91.017c2.478-0.661,5.079-1.017,7.765-1.017c2.687,0,5.289,0.355,7.766,1.017l7.766-28.982
			C130.576,60.71,125.371,60,119.999,60c-5.371,0-10.576,0.71-15.53,2.034L112.234,91.017z"/>
		<path fill="#57C785" d="M127.765,148.983c-2.477,0.661-5.079,1.017-7.766,1.017c-2.686,0-5.287-0.355-7.765-1.017l-7.766,28.982
			c4.954,1.324,10.159,2.034,15.53,2.034c5.372,0,10.577-0.71,15.531-2.034L127.765,148.983z"/>
		<path fill="#EDDD53" d="M148.982,127.768c-1.38,5.162-4.101,9.776-7.769,13.445l21.213,21.213
			c7.337-7.338,12.778-16.567,15.538-26.893L148.982,127.768z"/>
		<path fill="#00BAAD" d="M112.232,148.982c-5.162-1.38-9.777-4.101-13.445-7.769l-21.213,21.214
			c7.337,7.336,16.566,12.777,26.893,15.537L112.232,148.982z"/>
		<path fill="#ADD45C" d="M162.426,162.428l-21.214-21.214c-3.668,3.668-8.282,6.389-13.445,7.769l7.767,28.982
			C145.858,175.205,155.089,169.764,162.426,162.428z"/>
		<g>
			<circle fill="none" stroke="#3F3844" stroke-width="3" stroke-miterlimit="10" cx="120" cy="75.508" r="4.5"/>
			<circle fill="none" stroke="#3F3844" stroke-width="3" stroke-miterlimit="10" cx="97.754" cy="81.469" r="4.5"/>
			<circle fill="none" stroke="#3F3844" stroke-width="3" stroke-miterlimit="10" cx="142.246" cy="81.469" r="4.5"/>
			
				<line fill="none" stroke="#3F3844" stroke-width="3" stroke-miterlimit="10" x1="124.347" y1="76.674" x2="137.898" y2="80.305"/>
			
				<line fill="none" stroke="#3F3844" stroke-width="3" stroke-miterlimit="10" x1="102.101" y1="80.305" x2="115.652" y2="76.674"/>
		</g>
	</g>
	<g>
		<path fill="#900C3F" d="M317.574,77.572l21.213,21.214c3.668-3.668,8.283-6.389,13.445-7.769l-7.767-28.982
			C334.141,64.795,324.91,70.236,317.574,77.572z"/>
		<path fill="#FF5733" d="M367.767,91.018c5.163,1.38,9.777,4.101,13.445,7.769l21.214-21.214
			c-7.337-7.337-16.567-12.777-26.894-15.537L367.767,91.018z"/>
		<path fill="#3D3D6B" d="M329.998,120c0.001-2.686,0.356-5.288,1.018-7.765l-28.982-7.767c-1.324,4.955-2.034,10.16-2.034,15.531
			s0.71,10.576,2.034,15.531l28.983-7.767C330.354,125.288,329.999,122.686,329.998,120z"/>
		<path fill="#FFC300" d="M390,120c0,2.686-0.355,5.288-1.017,7.765l28.982,7.767C419.289,130.576,420,125.371,420,120
			s-0.711-10.576-2.034-15.531l-28.982,7.767C389.645,114.712,390,117.314,390,120z"/>
		<path fill="#511849" d="M331.017,112.232c1.38-5.162,4.101-9.776,7.769-13.445l-21.213-21.213
			c-7.337,7.338-12.778,16.567-15.538,26.893L331.017,112.232z"/>
		<path fill="#FF8D1A" d="M402.427,77.574l-21.214,21.213c3.668,3.669,6.39,8.283,7.769,13.445l28.983-7.766
			C415.204,94.142,409.764,84.911,402.427,77.574z"/>
		<path fill="#2A7B9B" d="M338.785,141.212c-3.668-3.668-6.39-8.282-7.769-13.444l-28.982,7.766
			c2.76,10.325,8.201,19.555,15.538,26.893L338.785,141.212z"/>
		<path fill="#C70039" d="M352.234,91.017c2.478-0.661,5.079-1.017,7.765-1.017c2.687,0,5.289,0.355,7.766,1.016l7.766-28.981
			C370.576,60.71,365.371,60,359.999,60c-5.371,0-10.576,0.71-15.53,2.034L352.234,91.017z"/>
		<path fill="#57C785" d="M367.765,148.983c-2.477,0.661-5.079,1.017-7.766,1.017c-2.686,0-5.287-0.355-7.766-1.017l-7.765,28.981
			c4.954,1.325,10.158,2.035,15.53,2.035c5.372-0.001,10.577-0.71,15.53-2.034L367.765,148.983z"/>
		<path fill="#EDDD53" d="M388.981,127.768c-1.379,5.161-4.101,9.776-7.768,13.445l21.213,21.213
			c7.336-7.338,12.777-16.567,15.538-26.893L388.981,127.768z"/>
		<path fill="#00BAAD" d="M352.232,148.982c-5.162-1.38-9.777-4.101-13.446-7.769l-21.212,21.214
			c7.336,7.336,16.566,12.777,26.893,15.538L352.232,148.982z"/>
		<path fill="#ADD45C" d="M402.426,162.428l-21.214-21.214c-3.668,3.668-8.282,6.389-13.445,7.769l7.767,28.983
			C385.858,175.205,395.089,169.764,402.426,162.428z"/>
		<g>
			<circle fill="none" stroke="#3F3844" stroke-width="3" stroke-miterlimit="10" cx="398.531" cy="97.754" r="4.5"/>
			<circle fill="none" stroke="#3F3844" stroke-width="3" stroke-miterlimit="10" cx="382.246" cy="81.469" r="4.5"/>
			<circle fill="none" stroke="#3F3844" stroke-width="3" stroke-miterlimit="10" cx="404.491" cy="120" r="4.5"/>
			
				<line fill="none" stroke="#3F3844" stroke-width="3" stroke-miterlimit="10" x1="399.694" y1="102.102" x2="403.326" y2="115.653"/>
			
				<line fill="none" stroke="#3F3844" stroke-width="3" stroke-miterlimit="10" x1="385.427" y1="84.651" x2="395.348" y2="94.572"/>
		</g>
	</g>
	<g>
		<path fill="#900C3F" d="M557.575,77.571l21.213,21.215c3.668-3.669,8.283-6.39,13.445-7.769l-7.767-28.983
			C574.142,64.795,564.911,70.236,557.575,77.571z"/>
		<path fill="#FF5733" d="M607.768,91.017c5.162,1.38,9.777,4.102,13.445,7.77l21.214-21.215
			c-7.337-7.337-16.567-12.776-26.894-15.537L607.768,91.017z"/>
		<path fill="#3D3D6B" d="M569.999,120c0.001-2.686,0.356-5.288,1.018-7.765l-28.982-7.768C540.71,109.424,540,114.629,540,120
			c0,5.37,0.71,10.576,2.034,15.531l28.983-7.767C570.355,125.288,570,122.686,569.999,120z"/>
		<path fill="#FFC300" d="M630.001,120c0,2.685-0.355,5.288-1.017,7.765l28.982,7.766c1.323-4.954,2.034-10.159,2.034-15.53
			s-0.711-10.576-2.034-15.531l-28.982,7.766C629.646,114.712,630.001,117.314,630.001,120z"/>
		<path fill="#511849" d="M571.018,112.232c1.38-5.162,4.101-9.776,7.769-13.445l-21.213-21.213
			c-7.337,7.338-12.778,16.567-15.538,26.892L571.018,112.232z"/>
		<path fill="#FF8D1A" d="M642.428,77.574l-21.214,21.213c3.669,3.669,6.39,8.283,7.769,13.445l28.983-7.766
			C655.205,94.142,649.765,84.911,642.428,77.574z"/>
		<path fill="#2A7B9B" d="M578.786,141.212c-3.668-3.668-6.39-8.283-7.769-13.444l-28.982,7.765
			c2.76,10.326,8.201,19.556,15.538,26.894L578.786,141.212z"/>
		<path fill="#C70039" d="M592.235,91.017C594.713,90.355,597.314,90,600,90c2.687-0.001,5.289,0.355,7.766,1.016l7.766-28.981
			C610.577,60.71,605.372,59.999,600,60c-5.371,0-10.576,0.71-15.53,2.033L592.235,91.017z"/>
		<path fill="#57C785" d="M607.766,148.983C605.289,149.645,602.687,150,600,150c-2.686,0-5.287-0.356-7.766-1.017l-7.765,28.981
			c4.954,1.325,10.158,2.034,15.53,2.035c5.372-0.002,10.577-0.71,15.53-2.035L607.766,148.983z"/>
		<path fill="#EDDD53" d="M628.982,127.768c-1.379,5.161-4.101,9.776-7.768,13.445l21.213,21.213
			c7.336-7.338,12.777-16.567,15.538-26.893L628.982,127.768z"/>
		<path fill="#00BAAD" d="M592.233,148.982c-5.162-1.38-9.777-4.101-13.446-7.769l-21.212,21.214
			c7.336,7.336,16.566,12.777,26.893,15.537L592.233,148.982z"/>
		<path fill="#ADD45C" d="M642.427,162.428l-21.214-21.214c-3.668,3.668-8.282,6.389-13.445,7.769l7.767,28.982
			C625.859,175.205,635.09,169.763,642.427,162.428z"/>
		<g>
			<circle fill="none" stroke="#3F3844" stroke-width="3" stroke-miterlimit="10" cx="638.531" cy="142.247" r="4.5"/>
			<circle fill="none" stroke="#3F3844" stroke-width="3" stroke-miterlimit="10" cx="644.492" cy="120" r="4.5"/>
			<circle fill="none" stroke="#3F3844" stroke-width="3" stroke-miterlimit="10" cx="622.247" cy="158.53" r="4.5"/>
			
				<line fill="none" stroke="#3F3844" stroke-width="3" stroke-miterlimit="10" x1="635.349" y1="145.428" x2="625.428" y2="155.349"/>
			
				<line fill="none" stroke="#3F3844" stroke-width="3" stroke-miterlimit="10" x1="643.327" y1="124.346" x2="639.695" y2="137.898"/>
		</g>
	</g>
	<g>
		<path fill="#900C3F" d="M77.574,317.572l21.212,21.214c3.668-3.669,8.284-6.389,13.446-7.769l-7.767-28.982
			C94.14,304.795,84.909,310.237,77.574,317.572z"/>
		<path fill="#FF5733" d="M127.766,331.017c5.163,1.38,9.778,4.102,13.446,7.771l21.214-21.216
			c-7.337-7.337-16.567-12.776-26.894-15.536L127.766,331.017z"/>
		<path fill="#3D3D6B" d="M89.997,360.001c0.002-2.686,0.357-5.289,1.018-7.766l-28.982-7.767
			c-1.323,4.955-2.033,10.16-2.034,15.531c0,5.371,0.711,10.576,2.035,15.531l28.982-7.767
			C90.354,365.288,89.998,362.686,89.997,360.001z"/>
		<path fill="#FFC300" d="M150,360c-0.001,2.685-0.356,5.288-1.017,7.765l28.982,7.766C179.289,370.576,180,365.371,180,360
			c0-5.37-0.711-10.576-2.034-15.531l-28.982,7.767C149.645,354.712,150,357.314,150,360z"/>
		<path fill="#511849" d="M91.017,352.232c1.38-5.161,4.101-9.776,7.769-13.445l-21.214-21.213
			c-7.336,7.338-12.777,16.567-15.538,26.892L91.017,352.232z"/>
		<path fill="#FF8D1A" d="M162.427,317.574l-21.215,21.213c3.669,3.669,6.391,8.283,7.769,13.446l28.984-7.766
			C175.204,334.142,169.764,324.911,162.427,317.574z"/>
		<path fill="#2A7B9B" d="M98.784,381.213c-3.667-3.669-6.389-8.283-7.768-13.445l-28.983,7.765
			c2.761,10.326,8.202,19.556,15.538,26.894L98.784,381.213z"/>
		<path fill="#C70039" d="M112.233,331.017c2.479-0.661,5.08-1.017,7.766-1.017s5.289,0.355,7.766,1.017l7.766-28.981
			c-4.954-1.325-10.16-2.036-15.531-2.035c-5.372,0.001-10.577,0.71-15.531,2.033L112.233,331.017z"/>
		<path fill="#57C785" d="M127.765,388.983c-2.478,0.661-5.079,1.017-7.766,1.017c-2.686,0.001-5.288-0.356-7.767-1.017
			l-7.764,28.982c4.953,1.324,10.157,2.033,15.53,2.034c5.372-0.002,10.577-0.71,15.53-2.034L127.765,388.983z"/>
		<path fill="#EDDD53" d="M148.98,367.769c-1.378,5.161-4.1,9.775-7.768,13.444l21.214,21.213
			c7.336-7.338,12.776-16.566,15.538-26.892L148.98,367.769z"/>
		<path fill="#00BAAD" d="M112.232,388.983c-5.162-1.381-9.777-4.102-13.447-7.77l-21.211,21.214
			c7.335,7.337,16.565,12.777,26.892,15.538L112.232,388.983z"/>
		<path fill="#ADD45C" d="M162.426,402.428l-21.214-21.214c-3.668,3.669-8.282,6.389-13.445,7.769l7.766,28.983
			C145.858,415.205,155.088,409.763,162.426,402.428z"/>
		<g>
			<circle fill="none" stroke="#3F3844" stroke-width="3" stroke-miterlimit="10" cx="119.998" cy="404.492" r="4.5"/>
			<circle fill="none" stroke="#3F3844" stroke-width="3" stroke-miterlimit="10" cx="142.245" cy="398.531" r="4.5"/>
			<circle fill="none" stroke="#3F3844" stroke-width="3" stroke-miterlimit="10" cx="97.754" cy="398.531" r="4.5"/>
			
				<line fill="none" stroke="#3F3844" stroke-width="3" stroke-miterlimit="10" x1="115.652" y1="403.326" x2="102.1" y2="399.695"/>
			
				<line fill="none" stroke="#3F3844" stroke-width="3" stroke-miterlimit="10" x1="137.899" y1="399.695" x2="124.346" y2="403.326"/>
		</g>
	</g>
	<g>
		<path fill="#900C3F" d="M317.575,317.572l21.212,21.213c3.668-3.668,8.284-6.388,13.447-7.768l-7.768-28.982
			C334.141,304.795,324.91,310.237,317.575,317.572z"/>
		<path fill="#FF5733" d="M367.767,331.017c5.163,1.38,9.778,4.102,13.446,7.771l21.214-21.217
			c-7.337-7.336-16.567-12.775-26.894-15.535L367.767,331.017z"/>
		<path fill="#3D3D6B" d="M329.998,360.001c0.002-2.686,0.356-5.289,1.018-7.767l-28.982-7.766C300.71,349.423,300,354.629,300,360
			c-0.001,5.371,0.71,10.576,2.034,15.531l28.982-7.768C330.355,365.288,329.999,362.686,329.998,360.001z"/>
		<path fill="#FFC300" d="M390,359.999c0,2.686-0.355,5.289-1.016,7.766l28.982,7.765c1.323-4.953,2.035-10.158,2.034-15.53
			c0-5.369-0.711-10.576-2.034-15.53l-28.982,7.767C389.645,354.712,390.001,357.314,390,359.999z"/>
		<path fill="#511849" d="M331.018,352.232c1.379-5.161,4.101-9.777,7.769-13.445l-21.214-21.214
			c-7.336,7.339-12.777,16.568-15.538,26.893L331.018,352.232z"/>
		<path fill="#FF8D1A" d="M402.427,317.574l-21.214,21.213c3.669,3.668,6.391,8.283,7.769,13.446l28.984-7.766
			C415.205,334.142,409.764,324.911,402.427,317.574z"/>
		<path fill="#2A7B9B" d="M338.785,381.213c-3.667-3.669-6.389-8.283-7.768-13.445l-28.983,7.765
			c2.761,10.325,8.202,19.556,15.538,26.894L338.785,381.213z"/>
		<path fill="#C70039" d="M352.234,331.016c2.479-0.66,5.08-1.016,7.766-1.016s5.289,0.355,7.766,1.017l7.766-28.981
			c-4.955-1.325-10.16-2.037-15.531-2.036c-5.372,0.002-10.576,0.711-15.531,2.033L352.234,331.016z"/>
		<path fill="#57C785" d="M367.766,388.983C365.289,389.645,362.687,390,360,390c-2.686,0.001-5.288-0.356-7.767-1.017
			l-7.764,28.982c4.954,1.324,10.157,2.033,15.53,2.034c5.372-0.002,10.576-0.71,15.53-2.034L367.766,388.983z"/>
		<path fill="#EDDD53" d="M388.981,367.769c-1.378,5.161-4.1,9.775-7.768,13.443l21.214,21.214
			c7.336-7.338,12.776-16.566,15.538-26.892L388.981,367.769z"/>
		<path fill="#00BAAD" d="M352.233,388.983c-5.162-1.381-9.777-4.102-13.447-7.77l-21.211,21.214
			c7.335,7.337,16.565,12.776,26.892,15.538L352.233,388.983z"/>
		<path fill="#ADD45C" d="M402.427,402.428l-21.214-21.214c-3.668,3.669-8.282,6.389-13.445,7.769l7.766,28.983
			C385.858,415.205,395.089,409.763,402.427,402.428z"/>
		<g>
			<circle fill="none" stroke="#3F3844" stroke-width="3" stroke-miterlimit="10" cx="321.468" cy="382.245" r="4.5"/>
			<circle fill="none" stroke="#3F3844" stroke-width="3" stroke-miterlimit="10" cx="337.754" cy="398.531" r="4.5"/>
			<circle fill="none" stroke="#3F3844" stroke-width="3" stroke-miterlimit="10" cx="315.509" cy="360.001" r="4.5"/>
			
				<line fill="none" stroke="#3F3844" stroke-width="3" stroke-miterlimit="10" x1="320.305" y1="377.898" x2="316.673" y2="364.346"/>
			
				<line fill="none" stroke="#3F3844" stroke-width="3" stroke-miterlimit="10" x1="334.573" y1="395.35" x2="324.651" y2="385.428"/>
		</g>
	</g>
	<g>
		<path fill="#900C3F" d="M557.576,317.572l21.212,21.213c3.668-3.668,8.284-6.388,13.447-7.768l-7.768-28.982
			C574.141,304.795,564.911,310.238,557.576,317.572z"/>
		<path fill="#FF5733" d="M607.768,331.017c5.163,1.38,9.777,4.102,13.446,7.771l21.213-21.217
			c-7.336-7.336-16.567-12.775-26.893-15.535L607.768,331.017z"/>
		<path fill="#3D3D6B" d="M569.999,360.002c0.002-2.687,0.356-5.289,1.017-7.768l-28.982-7.766
			c-1.323,4.954-2.032,10.16-2.032,15.531c-0.002,5.371,0.71,10.576,2.034,15.532l28.982-7.769
			C570.355,365.288,570,362.686,569.999,360.002z"/>
		<path fill="#FFC300" d="M630.001,359.999c0,2.685-0.356,5.289-1.017,7.766l28.982,7.765c1.324-4.953,2.036-10.158,2.035-15.53
			c0-5.369-0.712-10.576-2.035-15.53l-28.981,7.767C629.645,354.712,630.002,357.314,630.001,359.999z"/>
		<path fill="#511849" d="M571.019,352.232c1.378-5.161,4.1-9.777,7.768-13.445l-21.213-21.214
			c-7.336,7.339-12.777,16.568-15.538,26.893L571.019,352.232z"/>
		<path fill="#FF8D1A" d="M642.428,317.574l-21.214,21.213c3.668,3.668,6.391,8.283,7.769,13.447l28.984-7.767
			C655.206,334.142,649.765,324.912,642.428,317.574z"/>
		<path fill="#2A7B9B" d="M578.785,381.213c-3.666-3.669-6.388-8.283-7.767-13.445l-28.983,7.765
			c2.76,10.325,8.202,19.556,15.537,26.894L578.785,381.213z"/>
		<path fill="#C70039" d="M592.234,331.016c2.479-0.66,5.08-1.016,7.767-1.016c2.685,0,5.289,0.355,7.766,1.017l7.766-28.981
			c-4.956-1.324-10.161-2.037-15.532-2.036c-5.372,0.002-10.575,0.711-15.531,2.033L592.234,331.016z"/>
		<path fill="#57C785" d="M607.767,388.984c-2.477,0.66-5.08,1.016-7.766,1.016c-2.686,0.001-5.288-0.356-7.767-1.017l-7.764,28.982
			c4.954,1.324,10.157,2.032,15.53,2.034c5.372-0.002,10.575-0.709,15.53-2.034L607.767,388.984z"/>
		<path fill="#EDDD53" d="M628.981,367.769c-1.377,5.161-4.099,9.775-7.767,13.443l21.213,21.214
			c7.337-7.338,12.777-16.565,15.539-26.892L628.981,367.769z"/>
		<path fill="#00BAAD" d="M592.234,388.983c-5.162-1.381-9.777-4.102-13.447-7.77l-21.211,21.214
			c7.334,7.337,16.565,12.776,26.891,15.538L592.234,388.983z"/>
		<path fill="#ADD45C" d="M642.428,402.429l-21.215-21.215c-3.667,3.669-8.282,6.389-13.444,7.769l7.765,28.983
			C625.859,415.206,635.089,409.763,642.428,402.429z"/>
		<g>
			<circle fill="none" stroke="#3F3844" stroke-width="3" stroke-miterlimit="10" cx="561.469" cy="337.752" r="4.501"/>
			<path fill="none" stroke="#3F3844" stroke-width="3" stroke-miterlimit="10" d="M555.51,355.499c2.483,0,4.498,2.015,4.499,4.5
				c0.001,2.484-2.015,4.5-4.5,4.501c-2.485-0.001-4.501-2.014-4.499-4.502C551.008,357.516,553.023,355.5,555.51,355.499z"/>
			<circle fill="none" stroke="#3F3844" stroke-width="3" stroke-miterlimit="10" cx="577.754" cy="321.47" r="4.5"/>
			
				<line fill="none" stroke="#3F3844" stroke-width="3" stroke-miterlimit="10" x1="564.652" y1="334.571" x2="574.573" y2="324.649"/>
			
				<line fill="none" stroke="#3F3844" stroke-width="3" stroke-miterlimit="10" x1="556.674" y1="355.654" x2="560.305" y2="342.101"/>
		</g>
	</g>
</g>
<g id="Layer_1">
</g>
</svg>
