<?xml version="1.0" encoding="utf-8"?>
<!-- Generator: Adobe Illustrator 16.0.0, SVG Export Plug-In . SVG Version: 6.00 Build 0)  -->
<!DOCTYPE svg PUBLIC "-//W3C//DTD SVG 1.1//EN" "http://www.w3.org/Graphics/SVG/1.1/DTD/svg11.dtd">
<svg version="1.1" xmlns="http://www.w3.org/2000/svg" xmlns:xlink="http://www.w3.org/1999/xlink" x="0px" y="0px" width="720px"
	 height="480px" viewBox="0 0 720 480" enable-background="new 0 0 720 480" xml:space="preserve">
<g id="colors">
</g>
<g id="donuts" display="none">
</g>
<g id="hidden">
</g>
<g id="cuts">
</g>
<g id="guides" display="none">
</g>
<g id="harmonies">
	<g>
		<path fill="#900C3F" d="M77.574,77.573l21.213,21.213c3.668-3.668,8.283-6.389,13.445-7.769l-7.766-28.983
			C94.141,64.795,84.911,70.236,77.574,77.573z"/>
		<path fill="#FF5733" d="M127.767,91.018c5.163,1.38,9.777,4.101,13.445,7.769l21.214-21.213
			c-7.337-7.338-16.567-12.779-26.893-15.539L127.767,91.018z"/>
		<path fill="#3D3D6B" d="M89.999,120c0-2.686,0.355-5.288,1.018-7.765l-28.983-7.766c-1.324,4.953-2.034,10.158-2.034,15.53
			s0.71,10.577,2.034,15.53l28.983-7.766C90.354,125.288,89.999,122.686,89.999,120z"/>
		<path fill="#FFC300" d="M150,120c0,2.686-0.355,5.288-1.017,7.765l28.982,7.766C179.29,130.577,180,125.372,180,120
			s-0.71-10.577-2.034-15.53l-28.982,7.766C149.645,114.712,150,117.314,150,120z"/>
		<path fill="#511849" d="M91.017,112.233c1.38-5.163,4.101-9.777,7.769-13.445L77.572,77.574
			c-7.337,7.337-12.778,16.567-15.538,26.893L91.017,112.233z"/>
		<path fill="#FF8D1A" d="M162.427,77.574l-21.213,21.214c3.668,3.668,6.389,8.282,7.769,13.445l28.982-7.767
			C175.205,94.142,169.764,84.911,162.427,77.574z"/>
		<path fill="#2A7B9B" d="M98.785,141.212c-3.668-3.668-6.389-8.282-7.769-13.445l-28.982,7.767
			c2.76,10.325,8.201,19.556,15.538,26.893L98.785,141.212z"/>
		<path fill="#C70039" d="M112.234,91.017c2.478-0.662,5.079-1.017,7.765-1.017c2.687,0,5.289,0.354,7.766,1.017l7.766-28.982
			C130.576,60.71,125.371,60,119.999,60c-5.371,0-10.576,0.71-15.53,2.034L112.234,91.017z"/>
		<path fill="#57C785" d="M127.765,148.983c-2.477,0.662-5.079,1.017-7.766,1.017c-2.686,0-5.287-0.354-7.765-1.017l-7.766,28.982
			c4.954,1.324,10.159,2.034,15.53,2.034c5.372,0,10.577-0.71,15.531-2.034L127.765,148.983z"/>
		<path fill="#EDDD53" d="M148.982,127.767c-1.38,5.163-4.101,9.777-7.769,13.445l21.213,21.214
			c7.337-7.337,12.778-16.567,15.538-26.893L148.982,127.767z"/>
		<path fill="#00BAAD" d="M112.232,148.982c-5.162-1.38-9.777-4.101-13.445-7.769l-21.213,21.213
			c7.337,7.337,16.566,12.778,26.893,15.539L112.232,148.982z"/>
		<path fill="#ADD45C" d="M162.426,162.427l-21.214-21.213c-3.668,3.668-8.282,6.389-13.445,7.769l7.767,28.983
			C145.858,175.205,155.089,169.764,162.426,162.427z"/>
		<circle fill="none" stroke="#3F3844" stroke-width="3" stroke-miterlimit="10" cx="120" cy="75.509" r="4.5"/>
		<circle fill="none" stroke="#3F3844" stroke-width="3" stroke-miterlimit="10" cx="158.53" cy="142.246" r="4.5"/>
		<circle fill="none" stroke="#3F3844" stroke-width="3" stroke-miterlimit="10" cx="81.469" cy="142.246" r="4.5"/>
		
			<line fill="none" stroke="#3F3844" stroke-width="3" stroke-miterlimit="10" x1="154.031" y1="142.246" x2="85.968" y2="142.246"/>
		<line fill="none" stroke="#3F3844" stroke-width="3" stroke-miterlimit="10" x1="122.249" y1="79.403" x2="156.281" y2="138.35"/>
		<line fill="none" stroke="#3F3844" stroke-width="3" stroke-miterlimit="10" x1="83.719" y1="138.349" x2="117.75" y2="79.405"/>
	</g>
	<g>
		<path fill="#900C3F" d="M317.574,77.573l21.213,21.213c3.667-3.669,8.282-6.389,13.445-7.769l-7.767-28.983
			C334.141,64.795,324.911,70.236,317.574,77.573z"/>
		<path fill="#FF5733" d="M367.766,91.017c5.164,1.382,9.778,4.102,13.445,7.77l21.215-21.213
			c-7.337-7.338-16.567-12.779-26.894-15.539L367.766,91.017z"/>
		<path fill="#3D3D6B" d="M329.999,120c0-2.686,0.354-5.288,1.018-7.765l-28.983-7.766c-1.324,4.953-2.034,10.158-2.035,15.53
			c0.001,5.372,0.711,10.577,2.035,15.53l28.983-7.766C330.354,125.288,329.999,122.686,329.999,120z"/>
		<path fill="#FFC300" d="M389.999,120c0.001,2.686-0.355,5.287-1.017,7.765l28.982,7.766c1.324-4.953,2.034-10.158,2.035-15.53
			c-0.001-5.372-0.711-10.578-2.035-15.53l-28.981,7.765C389.645,114.712,390,117.314,389.999,120z"/>
		<path fill="#511849" d="M331.017,112.233c1.38-5.163,4.1-9.777,7.769-13.445l-21.213-21.214
			c-7.337,7.337-12.779,16.567-15.539,26.893L331.017,112.233z"/>
		<path fill="#FF8D1A" d="M402.426,77.574l-21.212,21.214c3.668,3.668,6.389,8.282,7.768,13.445l28.983-7.767
			C415.205,94.142,409.763,84.911,402.426,77.574z"/>
		<path fill="#2A7B9B" d="M338.785,141.212c-3.669-3.668-6.389-8.282-7.769-13.445l-28.983,7.767
			c2.76,10.325,8.202,19.556,15.539,26.893L338.785,141.212z"/>
		<path fill="#C70039" d="M352.234,91.017c2.478-0.662,5.079-1.017,7.765-1.017c2.687,0,5.289,0.354,7.766,1.016l7.766-28.981
			C370.575,60.71,365.371,60,359.998,60c-5.371,0-10.575,0.71-15.529,2.034L352.234,91.017z"/>
		<path fill="#57C785" d="M367.764,148.983c-2.476,0.662-5.078,1.017-7.766,1.017c-2.685,0.001-5.286-0.354-7.764-1.017
			l-7.766,28.981c4.954,1.325,10.159,2.035,15.529,2.035c5.373,0,10.578-0.71,15.532-2.034L367.764,148.983z"/>
		<path fill="#EDDD53" d="M388.981,127.767c-1.379,5.163-4.1,9.777-7.768,13.445l21.212,21.214
			c7.337-7.337,12.779-16.567,15.539-26.893L388.981,127.767z"/>
		<path fill="#00BAAD" d="M352.232,148.982c-5.163-1.38-9.778-4.101-13.445-7.769l-21.213,21.213
			c7.337,7.337,16.566,12.778,26.892,15.538L352.232,148.982z"/>
		<path fill="#ADD45C" d="M402.426,162.427l-21.215-21.213c-3.667,3.668-8.281,6.389-13.445,7.769l7.767,28.982
			C385.857,175.205,395.089,169.764,402.426,162.427z"/>
		<g>
			<circle fill="none" stroke="#3F3844" stroke-width="3" stroke-miterlimit="10" cx="382.245" cy="81.47" r="4.5"/>
			<circle fill="none" stroke="#3F3844" stroke-width="3" stroke-miterlimit="10" cx="382.245" cy="158.531" r="4.5"/>
			<circle fill="none" stroke="#3F3844" stroke-width="3" stroke-miterlimit="10" cx="315.507" cy="120" r="4.5"/>
			
				<line fill="none" stroke="#3F3844" stroke-width="3" stroke-miterlimit="10" x1="378.349" y1="156.281" x2="319.403" y2="122.25"/>
			
				<line fill="none" stroke="#3F3844" stroke-width="3" stroke-miterlimit="10" x1="382.246" y1="85.967" x2="382.245" y2="154.032"/>
			
				<line fill="none" stroke="#3F3844" stroke-width="3" stroke-miterlimit="10" x1="319.404" y1="117.75" x2="378.349" y2="83.719"/>
		</g>
	</g>
	<g>
		<path fill="#900C3F" d="M557.575,77.573l21.213,21.213c3.667-3.669,8.281-6.389,13.445-7.769l-7.768-28.984
			C574.142,64.795,564.912,70.236,557.575,77.573z"/>
		<path fill="#FF5733" d="M607.766,91.017c5.165,1.382,9.779,4.103,13.445,7.77l21.216-21.213
			c-7.338-7.339-16.567-12.779-26.895-15.54L607.766,91.017z"/>
		<path fill="#3D3D6B" d="M570,120c0-2.686,0.354-5.288,1.018-7.765l-28.983-7.766c-1.324,4.954-2.034,10.158-2.036,15.53
			c0.002,5.372,0.711,10.576,2.036,15.53l28.983-7.766C570.354,125.288,570,122.686,570,120z"/>
		<path fill="#FFC300" d="M629.999,120c0.001,2.686-0.355,5.287-1.017,7.765l28.982,7.766C659.289,130.576,660,125.372,660,120
			s-0.711-10.578-2.035-15.53l-28.98,7.765C629.645,114.712,630,117.314,629.999,120z"/>
		<path fill="#511849" d="M571.018,112.234c1.38-5.164,4.099-9.778,7.769-13.446l-21.213-21.214
			c-7.337,7.337-12.78,16.567-15.54,26.893L571.018,112.234z"/>
		<path fill="#FF8D1A" d="M642.426,77.574l-21.211,21.214c3.668,3.668,6.389,8.282,7.767,13.445l28.984-7.767
			C655.206,94.142,649.763,84.911,642.426,77.574z"/>
		<path fill="#2A7B9B" d="M578.786,141.212c-3.669-3.668-6.389-8.282-7.769-13.444l-28.984,7.766
			c2.76,10.325,8.203,19.556,15.54,26.893L578.786,141.212z"/>
		<path fill="#C70039" d="M592.235,91.017C594.713,90.354,597.313,90,600,90c2.686,0,5.289,0.354,7.766,1.016l7.766-28.981
			C610.576,60.71,605.372,60,599.998,60c-5.37,0-10.575,0.71-15.529,2.034L592.235,91.017z"/>
		<path fill="#57C785" d="M607.764,148.983c-2.475,0.662-5.078,1.017-7.766,1.017c-2.684,0.001-5.285-0.354-7.763-1.017
			l-7.766,28.981c4.953,1.325,10.159,2.035,15.529,2.035c5.373,0,10.577-0.71,15.532-2.034L607.764,148.983z"/>
		<path fill="#EDDD53" d="M628.981,127.767c-1.378,5.163-4.099,9.777-7.767,13.445l21.211,21.214
			c7.337-7.337,12.78-16.567,15.54-26.893L628.981,127.767z"/>
		<path fill="#00BAAD" d="M592.233,148.982c-5.164-1.38-9.779-4.102-13.445-7.769l-21.213,21.213
			c7.337,7.337,16.566,12.778,26.892,15.538L592.233,148.982z"/>
		<path fill="#ADD45C" d="M642.427,162.427l-21.216-21.213c-3.667,3.667-8.28,6.389-13.445,7.768l7.768,28.983
			C625.857,175.205,635.09,169.764,642.427,162.427z"/>
		<g>
			<circle fill="none" stroke="#3F3844" stroke-width="3" stroke-miterlimit="10" cx="638.531" cy="97.755" r="4.501"/>
			<circle fill="none" stroke="#3F3844" stroke-width="3" stroke-miterlimit="10" cx="600" cy="164.492" r="4.5"/>
			<circle fill="none" stroke="#3F3844" stroke-width="3" stroke-miterlimit="10" cx="561.468" cy="97.754" r="4.5"/>
			
				<line fill="none" stroke="#3F3844" stroke-width="3" stroke-miterlimit="10" x1="597.75" y1="160.595" x2="563.718" y2="101.65"/>
			
				<line fill="none" stroke="#3F3844" stroke-width="3" stroke-miterlimit="10" x1="636.283" y1="101.649" x2="602.249" y2="160.596"/>
			
				<line fill="none" stroke="#3F3844" stroke-width="3" stroke-miterlimit="10" x1="565.969" y1="97.754" x2="634.031" y2="97.754"/>
		</g>
	</g>
	<g>
		<path fill="#900C3F" d="M77.575,317.573l21.213,21.212c3.667-3.668,8.281-6.388,13.445-7.769l-7.768-28.984
			C94.142,304.795,84.912,310.236,77.575,317.573z"/>
		<path fill="#FF5733" d="M127.766,331.017c5.165,1.382,9.779,4.103,13.445,7.77l21.216-21.213
			c-7.338-7.34-16.566-12.779-26.895-15.541L127.766,331.017z"/>
		<path fill="#3D3D6B" d="M90,360c0.001-2.686,0.354-5.289,1.018-7.765l-28.983-7.766C60.71,349.424,60,354.628,59.999,360
			c0.001,5.372,0.71,10.576,2.036,15.529l28.982-7.766C90.354,365.288,90.001,362.686,90,360z"/>
		<path fill="#FFC300" d="M149.999,360c0.001,2.686-0.355,5.287-1.017,7.764l28.982,7.767C179.289,370.576,180,365.372,180,360
			s-0.711-10.578-2.035-15.53l-28.98,7.765C149.645,354.711,150,357.314,149.999,360z"/>
		<path fill="#511849" d="M91.018,352.234c1.38-5.164,4.099-9.778,7.77-13.446l-21.214-21.215
			c-7.337,7.337-12.78,16.568-15.54,26.894L91.018,352.234z"/>
		<path fill="#FF8D1A" d="M162.426,317.574l-21.211,21.214c3.669,3.668,6.389,8.281,7.767,13.445l28.985-7.767
			C175.206,334.142,169.763,324.911,162.426,317.574z"/>
		<path fill="#2A7B9B" d="M98.786,381.212c-3.669-3.668-6.388-8.282-7.769-13.444l-28.984,7.766
			c2.76,10.325,8.203,19.556,15.54,26.893L98.786,381.212z"/>
		<path fill="#C70039" d="M112.236,331.017c2.477-0.662,5.077-1.017,7.764-1.017c2.686-0.001,5.289,0.354,7.767,1.016l7.765-28.981
			c-4.955-1.324-10.158-2.035-15.533-2.034c-5.369-0.001-10.575,0.709-15.529,2.034L112.236,331.017z"/>
		<path fill="#57C785" d="M127.764,388.982c-2.474,0.662-5.078,1.018-7.766,1.018c-2.684,0.001-5.284-0.355-7.763-1.017
			l-7.766,28.981c4.953,1.324,10.16,2.035,15.529,2.035c5.373,0,10.577-0.71,15.533-2.034L127.764,388.982z"/>
		<path fill="#EDDD53" d="M148.981,367.766c-1.378,5.164-4.099,9.778-7.766,13.445l21.21,21.214
			c7.337-7.337,12.78-16.566,15.541-26.892L148.981,367.766z"/>
		<path fill="#00BAAD" d="M112.233,388.982c-5.164-1.381-9.779-4.102-13.445-7.769l-21.212,21.212
			c7.337,7.338,16.565,12.778,26.892,15.539L112.233,388.982z"/>
		<path fill="#ADD45C" d="M162.428,402.426l-21.217-21.213c-3.667,3.668-8.28,6.389-13.445,7.769l7.769,28.983
			C145.857,415.205,155.091,409.763,162.428,402.426z"/>
		<g>
			<circle fill="none" stroke="#3F3844" stroke-width="3" stroke-miterlimit="10" cx="164.491" cy="360" r="4.5"/>
			<circle fill="none" stroke="#3F3844" stroke-width="3" stroke-miterlimit="10" cx="97.754" cy="398.531" r="4.5"/>
			<circle fill="none" stroke="#3F3844" stroke-width="3" stroke-miterlimit="10" cx="97.754" cy="321.469" r="4.5"/>
			
				<line fill="none" stroke="#3F3844" stroke-width="3" stroke-miterlimit="10" x1="97.754" y1="394.031" x2="97.754" y2="325.968"/>
			
				<line fill="none" stroke="#3F3844" stroke-width="3" stroke-miterlimit="10" x1="160.598" y1="362.25" x2="101.65" y2="396.281"/>
			
				<line fill="none" stroke="#3F3844" stroke-width="3" stroke-miterlimit="10" x1="101.651" y1="323.719" x2="160.595" y2="357.75"/>
		</g>
	</g>
</g>
<g id="Layer_1">
</g>
</svg>
