<?xml version="1.0" encoding="utf-8"?>
<!-- Generator: Adobe Illustrator 16.0.0, SVG Export Plug-In . SVG Version: 6.00 Build 0)  -->
<!DOCTYPE svg PUBLIC "-//W3C//DTD SVG 1.1//EN" "http://www.w3.org/Graphics/SVG/1.1/DTD/svg11.dtd">
<svg version="1.1" xmlns="http://www.w3.org/2000/svg" xmlns:xlink="http://www.w3.org/1999/xlink" x="0px" y="0px" width="720px"
	 height="480px" viewBox="0 0 720 480" enable-background="new 0 0 720 480" xml:space="preserve">
<g id="colors">
</g>
<g id="donuts" display="none">
</g>
<g id="hidden">
</g>
<g id="cuts">
	<path fill="#FFC300" d="M-120,240c0,10.742-1.42,21.152-4.066,31.059l115.934,31.064c5.295-19.816,8.135-40.637,8.135-62.123
		s-2.84-42.307-8.135-62.123l-115.934,31.064C-121.42,218.85-120,229.258-120,240z"/>
</g>
<g id="guides" display="none">
</g>
<g id="harmonies">
	<g>
		<path fill="#900C3F" d="M77.575,77.573l21.213,21.213c3.668-3.668,8.283-6.389,13.445-7.769l-7.766-28.983
			C94.142,64.795,84.912,70.236,77.575,77.573z"/>
		<path fill="#FF5733" d="M127.768,91.018c5.163,1.38,9.776,4.101,13.445,7.769l21.213-21.213
			c-7.337-7.338-16.566-12.779-26.892-15.539L127.768,91.018z"/>
		<path fill="#3D3D6B" d="M90,120c0-2.686,0.355-5.288,1.018-7.765l-28.983-7.766C60.71,109.423,60,114.628,60,120
			s0.71,10.577,2.034,15.53l28.983-7.766C90.355,125.288,90,122.686,90,120z"/>
		<path fill="#FFC300" d="M150.001,120c0,2.686-0.355,5.288-1.018,7.765l28.983,7.766C179.29,130.577,180,125.372,180,120
			s-0.71-10.577-2.033-15.53l-28.983,7.766C149.646,114.712,150.001,117.314,150.001,120z"/>
		<path fill="#511849" d="M91.018,112.233c1.38-5.163,4.101-9.777,7.769-13.445L77.573,77.574
			c-7.336,7.337-12.777,16.567-15.538,26.893L91.018,112.233z"/>
		<path fill="#FF8D1A" d="M162.428,77.574l-21.213,21.214c3.668,3.668,6.388,8.282,7.769,13.445l28.982-7.767
			C175.206,94.142,169.765,84.911,162.428,77.574z"/>
		<path fill="#2A7B9B" d="M98.786,141.212c-3.668-3.668-6.389-8.282-7.769-13.445l-28.982,7.767
			c2.761,10.325,8.202,19.556,15.538,26.893L98.786,141.212z"/>
		<path fill="#C70039" d="M112.235,91.017C114.713,90.354,117.314,90,120,90c2.687,0,5.288,0.354,7.765,1.017l7.767-28.982
			C130.577,60.71,125.372,60,120,60c-5.371,0-10.576,0.71-15.53,2.034L112.235,91.017z"/>
		<path fill="#57C785" d="M127.765,148.983C125.288,149.646,122.687,150,120,150c-2.686,0-5.287-0.354-7.765-1.017l-7.766,28.982
			C109.424,179.29,114.629,180,120,180c5.372,0,10.577-0.71,15.531-2.034L127.765,148.983z"/>
		<path fill="#EDDD53" d="M148.983,127.767c-1.381,5.163-4.101,9.777-7.769,13.445l21.213,21.214
			c7.337-7.337,12.778-16.567,15.538-26.893L148.983,127.767z"/>
		<path fill="#00BAAD" d="M112.233,148.982c-5.162-1.38-9.777-4.101-13.445-7.769l-21.213,21.213
			c7.337,7.338,16.566,12.779,26.893,15.539L112.233,148.982z"/>
		<path fill="#ADD45C" d="M162.426,162.427l-21.213-21.213c-3.669,3.668-8.282,6.389-13.445,7.769l7.767,28.983
			C145.859,175.206,155.089,169.765,162.426,162.427z"/>
		<circle fill="none" stroke="#3F3844" stroke-width="3" stroke-miterlimit="10" cx="120.001" cy="164.491" r="4.5"/>
		<circle fill="none" stroke="#3F3844" stroke-width="3" stroke-miterlimit="10" cx="120.001" cy="75.509" r="4.5"/>
		
			<line fill="none" stroke="#3F3844" stroke-width="3" stroke-miterlimit="10" x1="120.001" y1="80.009" x2="120.001" y2="159.991"/>
	</g>
	<g>
		<path fill="#900C3F" d="M77.576,317.573l21.213,21.213c3.668-3.668,8.283-6.389,13.445-7.769l-7.766-28.983
			C94.143,304.795,84.913,310.236,77.576,317.573z"/>
		<path fill="#FF5733" d="M127.769,331.018c5.163,1.38,9.776,4.101,13.445,7.769l21.213-21.213
			c-7.337-7.338-16.566-12.779-26.892-15.539L127.769,331.018z"/>
		<path fill="#3D3D6B" d="M90.001,360c0-2.686,0.355-5.288,1.018-7.765l-28.983-7.766c-1.324,4.953-2.034,10.158-2.034,15.53
			s0.71,10.577,2.034,15.53l28.983-7.766C90.356,365.288,90.001,362.686,90.001,360z"/>
		<path fill="#FFC300" d="M150.002,360c0,2.686-0.355,5.288-1.018,7.765l28.983,7.766c1.323-4.953,2.033-10.158,2.033-15.53
			s-0.71-10.577-2.033-15.53l-28.983,7.766C149.646,354.712,150.002,357.314,150.002,360z"/>
		<path fill="#511849" d="M91.019,352.233c1.38-5.163,4.101-9.777,7.769-13.445l-21.213-21.214
			c-7.336,7.337-12.777,16.567-15.538,26.893L91.019,352.233z"/>
		<path fill="#FF8D1A" d="M162.429,317.574l-21.213,21.214c3.668,3.668,6.388,8.282,7.769,13.445l28.982-7.767
			C175.207,334.142,169.766,324.911,162.429,317.574z"/>
		<path fill="#2A7B9B" d="M98.787,381.212c-3.668-3.668-6.389-8.282-7.769-13.445l-28.982,7.767
			c2.761,10.325,8.202,19.556,15.538,26.893L98.787,381.212z"/>
		<path fill="#C70039" d="M112.236,331.017c2.478-0.662,5.079-1.017,7.765-1.017c2.687,0,5.288,0.354,7.765,1.017l7.767-28.982
			c-4.954-1.324-10.159-2.034-15.531-2.034c-5.371,0-10.576,0.71-15.53,2.034L112.236,331.017z"/>
		<path fill="#57C785" d="M127.766,388.983c-2.477,0.662-5.078,1.017-7.765,1.017c-2.686,0-5.287-0.354-7.765-1.017l-7.766,28.982
			c4.954,1.324,10.159,2.034,15.53,2.034c5.372,0,10.577-0.71,15.531-2.034L127.766,388.983z"/>
		<path fill="#EDDD53" d="M148.984,367.767c-1.381,5.163-4.101,9.777-7.769,13.445l21.213,21.214
			c7.337-7.337,12.778-16.567,15.538-26.893L148.984,367.767z"/>
		<path fill="#00BAAD" d="M112.234,388.982c-5.162-1.38-9.777-4.101-13.445-7.769l-21.213,21.213
			c7.337,7.338,16.566,12.779,26.893,15.539L112.234,388.982z"/>
		<path fill="#ADD45C" d="M162.427,402.427l-21.213-21.213c-3.669,3.668-8.282,6.389-13.445,7.769l7.767,28.983
			C145.86,415.206,155.09,409.765,162.427,402.427z"/>
		<circle fill="none" stroke="#3F3844" stroke-width="3" stroke-miterlimit="10" cx="75.51" cy="360" r="4.5"/>
		<circle fill="none" stroke="#3F3844" stroke-width="3" stroke-miterlimit="10" cx="164.493" cy="360" r="4.5"/>
		<line fill="none" stroke="#3F3844" stroke-width="3" stroke-miterlimit="10" x1="159.993" y1="360" x2="80.01" y2="360"/>
	</g>
	<g>
		<path fill="#900C3F" d="M317.575,77.573l21.213,21.213c3.668-3.668,8.283-6.389,13.445-7.769l-7.766-28.983
			C334.142,64.795,324.912,70.236,317.575,77.573z"/>
		<path fill="#FF5733" d="M367.768,91.018c5.163,1.38,9.776,4.101,13.445,7.769l21.213-21.213
			c-7.337-7.338-16.566-12.779-26.892-15.539L367.768,91.018z"/>
		<path fill="#3D3D6B" d="M330,120c0-2.686,0.355-5.288,1.018-7.765l-28.983-7.766C300.71,109.423,300,114.628,300,120
			s0.71,10.577,2.034,15.53l28.983-7.766C330.355,125.288,330,122.686,330,120z"/>
		<path fill="#FFC300" d="M390.001,120c0,2.686-0.355,5.288-1.018,7.765l28.983,7.766C419.29,130.577,420,125.372,420,120
			s-0.71-10.577-2.033-15.53l-28.983,7.766C389.646,114.712,390.001,117.314,390.001,120z"/>
		<path fill="#511849" d="M331.018,112.233c1.38-5.163,4.101-9.777,7.769-13.445l-21.213-21.214
			c-7.336,7.337-12.777,16.567-15.538,26.893L331.018,112.233z"/>
		<path fill="#FF8D1A" d="M402.428,77.574l-21.213,21.214c3.668,3.668,6.388,8.282,7.769,13.445l28.982-7.767
			C415.206,94.142,409.765,84.911,402.428,77.574z"/>
		<path fill="#2A7B9B" d="M338.786,141.212c-3.668-3.668-6.389-8.282-7.769-13.445l-28.982,7.767
			c2.761,10.325,8.202,19.556,15.538,26.893L338.786,141.212z"/>
		<path fill="#C70039" d="M352.235,91.017C354.713,90.354,357.314,90,360,90c2.687,0,5.288,0.354,7.765,1.017l7.767-28.982
			C370.577,60.71,365.372,60,360,60c-5.371,0-10.576,0.71-15.53,2.034L352.235,91.017z"/>
		<path fill="#57C785" d="M367.765,148.983C365.288,149.646,362.687,150,360,150c-2.686,0-5.287-0.354-7.765-1.017l-7.766,28.982
			C349.424,179.29,354.629,180,360,180c5.372,0,10.577-0.71,15.531-2.034L367.765,148.983z"/>
		<path fill="#EDDD53" d="M388.983,127.767c-1.381,5.163-4.101,9.777-7.769,13.445l21.213,21.214
			c7.337-7.337,12.778-16.567,15.538-26.893L388.983,127.767z"/>
		<path fill="#00BAAD" d="M352.233,148.982c-5.162-1.38-9.777-4.101-13.445-7.769l-21.213,21.213
			c7.337,7.338,16.566,12.779,26.893,15.539L352.233,148.982z"/>
		<path fill="#ADD45C" d="M402.426,162.427l-21.213-21.213c-3.669,3.668-8.282,6.389-13.445,7.769l7.767,28.983
			C385.859,175.206,395.089,169.765,402.426,162.427z"/>
		<circle fill="none" stroke="#3F3844" stroke-width="3" stroke-miterlimit="10" cx="337.755" cy="158.53" r="4.499"/>
		<circle fill="none" stroke="#3F3844" stroke-width="3" stroke-miterlimit="10" cx="382.247" cy="81.47" r="4.5"/>
		
			<line fill="none" stroke="#3F3844" stroke-width="3" stroke-miterlimit="10" x1="379.997" y1="85.366" x2="340.005" y2="154.634"/>
	</g>
	<g>
		<path fill="#900C3F" d="M317.575,317.573l21.213,21.213c3.668-3.668,8.283-6.389,13.445-7.769l-7.766-28.983
			C334.142,304.795,324.912,310.236,317.575,317.573z"/>
		<path fill="#FF5733" d="M367.768,331.018c5.163,1.38,9.776,4.101,13.445,7.769l21.213-21.213
			c-7.337-7.338-16.566-12.779-26.892-15.539L367.768,331.018z"/>
		<path fill="#3D3D6B" d="M330,360c0-2.686,0.355-5.288,1.018-7.765l-28.983-7.766C300.71,349.423,300,354.628,300,360
			s0.71,10.577,2.034,15.53l28.983-7.766C330.355,365.288,330,362.686,330,360z"/>
		<path fill="#FFC300" d="M390.001,360c0,2.686-0.355,5.288-1.018,7.765l28.983,7.766C419.29,370.577,420,365.372,420,360
			s-0.71-10.577-2.033-15.53l-28.983,7.766C389.646,354.712,390.001,357.314,390.001,360z"/>
		<path fill="#511849" d="M331.018,352.233c1.38-5.163,4.101-9.777,7.769-13.445l-21.213-21.214
			c-7.336,7.337-12.777,16.567-15.538,26.893L331.018,352.233z"/>
		<path fill="#FF8D1A" d="M402.428,317.574l-21.213,21.214c3.668,3.668,6.388,8.282,7.769,13.445l28.982-7.767
			C415.206,334.142,409.765,324.911,402.428,317.574z"/>
		<path fill="#2A7B9B" d="M338.786,381.212c-3.668-3.668-6.389-8.282-7.769-13.445l-28.982,7.767
			c2.761,10.325,8.202,19.556,15.538,26.893L338.786,381.212z"/>
		<path fill="#C70039" d="M352.235,331.017c2.478-0.662,5.079-1.017,7.765-1.017c2.687,0,5.288,0.354,7.765,1.017l7.767-28.982
			C370.577,300.71,365.372,300,360,300c-5.371,0-10.576,0.71-15.53,2.034L352.235,331.017z"/>
		<path fill="#57C785" d="M367.765,388.983C365.288,389.646,362.687,390,360,390c-2.686,0-5.287-0.354-7.765-1.017l-7.766,28.982
			C349.424,419.29,354.629,420,360,420c5.372,0,10.577-0.71,15.531-2.034L367.765,388.983z"/>
		<path fill="#EDDD53" d="M388.983,367.767c-1.381,5.163-4.101,9.777-7.769,13.445l21.213,21.214
			c7.337-7.337,12.778-16.567,15.538-26.893L388.983,367.767z"/>
		<path fill="#00BAAD" d="M352.233,388.982c-5.162-1.38-9.777-4.101-13.445-7.769l-21.213,21.213
			c7.337,7.338,16.566,12.779,26.893,15.539L352.233,388.982z"/>
		<path fill="#ADD45C" d="M402.426,402.427l-21.213-21.213c-3.669,3.668-8.282,6.389-13.445,7.769l7.767,28.983
			C385.859,415.206,395.089,409.765,402.426,402.427z"/>
		<circle fill="none" stroke="#3F3844" stroke-width="3" stroke-miterlimit="10" cx="398.531" cy="382.246" r="4.5"/>
		<circle fill="none" stroke="#3F3844" stroke-width="3" stroke-miterlimit="10" cx="321.47" cy="337.754" r="4.5"/>
		
			<line fill="none" stroke="#3F3844" stroke-width="3" stroke-miterlimit="10" x1="325.367" y1="340.004" x2="394.634" y2="379.996"/>
	</g>
	<g>
		<path fill="#900C3F" d="M557.575,77.573l21.213,21.213c3.668-3.668,8.283-6.389,13.445-7.769l-7.766-28.983
			C574.142,64.795,564.912,70.236,557.575,77.573z"/>
		<path fill="#FF5733" d="M607.768,91.018c5.163,1.38,9.776,4.101,13.445,7.769l21.213-21.213
			c-7.337-7.338-16.566-12.779-26.892-15.539L607.768,91.018z"/>
		<path fill="#3D3D6B" d="M570,120c0-2.686,0.355-5.288,1.018-7.765l-28.983-7.766C540.71,109.423,540,114.628,540,120
			s0.71,10.577,2.034,15.53l28.983-7.766C570.355,125.288,570,122.686,570,120z"/>
		<path fill="#FFC300" d="M630.001,120c0,2.686-0.355,5.288-1.018,7.765l28.983,7.766C659.29,130.577,660,125.372,660,120
			s-0.71-10.577-2.033-15.53l-28.983,7.766C629.646,114.712,630.001,117.314,630.001,120z"/>
		<path fill="#511849" d="M571.018,112.233c1.38-5.163,4.101-9.777,7.769-13.445l-21.213-21.214
			c-7.336,7.337-12.777,16.567-15.538,26.893L571.018,112.233z"/>
		<path fill="#FF8D1A" d="M642.428,77.574l-21.213,21.214c3.668,3.668,6.388,8.282,7.769,13.445l28.982-7.767
			C655.206,94.142,649.765,84.911,642.428,77.574z"/>
		<path fill="#2A7B9B" d="M578.786,141.212c-3.668-3.668-6.389-8.282-7.769-13.445l-28.982,7.767
			c2.761,10.325,8.202,19.556,15.538,26.893L578.786,141.212z"/>
		<path fill="#C70039" d="M592.235,91.017C594.713,90.354,597.314,90,600,90c2.687,0,5.288,0.354,7.765,1.017l7.767-28.982
			C610.577,60.71,605.372,60,600,60c-5.371,0-10.576,0.71-15.53,2.034L592.235,91.017z"/>
		<path fill="#57C785" d="M607.765,148.983C605.288,149.646,602.687,150,600,150c-2.686,0-5.287-0.354-7.765-1.017l-7.766,28.982
			C589.424,179.29,594.629,180,600,180c5.372,0,10.577-0.71,15.531-2.034L607.765,148.983z"/>
		<path fill="#EDDD53" d="M628.983,127.767c-1.381,5.163-4.101,9.777-7.769,13.445l21.213,21.214
			c7.337-7.337,12.778-16.567,15.538-26.893L628.983,127.767z"/>
		<path fill="#00BAAD" d="M592.233,148.982c-5.162-1.38-9.777-4.101-13.445-7.769l-21.213,21.213
			c7.337,7.338,16.566,12.779,26.893,15.539L592.233,148.982z"/>
		<path fill="#ADD45C" d="M642.426,162.427l-21.213-21.213c-3.669,3.668-8.282,6.389-13.445,7.769l7.767,28.983
			C625.859,175.206,635.089,169.765,642.426,162.427z"/>
		<circle fill="none" stroke="#3F3844" stroke-width="3" stroke-miterlimit="10" cx="561.47" cy="142.246" r="4.5"/>
		<circle fill="none" stroke="#3F3844" stroke-width="3" stroke-miterlimit="10" cx="638.531" cy="97.754" r="4.5"/>
		
			<line fill="none" stroke="#3F3844" stroke-width="3" stroke-miterlimit="10" x1="634.634" y1="100.004" x2="565.367" y2="139.996"/>
	</g>
	<g>
		<path fill="#900C3F" d="M557.575,317.573l21.213,21.213c3.668-3.668,8.283-6.389,13.445-7.769l-7.766-28.983
			C574.142,304.795,564.912,310.236,557.575,317.573z"/>
		<path fill="#FF5733" d="M607.768,331.018c5.163,1.38,9.776,4.101,13.445,7.769l21.213-21.213
			c-7.337-7.338-16.566-12.779-26.892-15.539L607.768,331.018z"/>
		<path fill="#3D3D6B" d="M570,360c0-2.686,0.355-5.288,1.018-7.765l-28.983-7.766C540.71,349.423,540,354.628,540,360
			s0.71,10.577,2.034,15.53l28.983-7.766C570.355,365.288,570,362.686,570,360z"/>
		<path fill="#FFC300" d="M630.001,360c0,2.686-0.355,5.288-1.018,7.765l28.983,7.766C659.29,370.577,660,365.372,660,360
			s-0.71-10.577-2.033-15.53l-28.983,7.766C629.646,354.712,630.001,357.314,630.001,360z"/>
		<path fill="#511849" d="M571.018,352.233c1.38-5.163,4.101-9.777,7.769-13.445l-21.213-21.214
			c-7.336,7.337-12.777,16.567-15.538,26.893L571.018,352.233z"/>
		<path fill="#FF8D1A" d="M642.428,317.574l-21.213,21.214c3.668,3.668,6.388,8.282,7.769,13.445l28.982-7.767
			C655.206,334.142,649.765,324.911,642.428,317.574z"/>
		<path fill="#2A7B9B" d="M578.786,381.212c-3.668-3.668-6.389-8.282-7.769-13.445l-28.982,7.767
			c2.761,10.325,8.202,19.556,15.538,26.893L578.786,381.212z"/>
		<path fill="#C70039" d="M592.235,331.017c2.478-0.662,5.079-1.017,7.765-1.017c2.687,0,5.288,0.354,7.765,1.017l7.767-28.982
			C610.577,300.71,605.372,300,600,300c-5.371,0-10.576,0.71-15.53,2.034L592.235,331.017z"/>
		<path fill="#57C785" d="M607.765,388.983C605.288,389.646,602.687,390,600,390c-2.686,0-5.287-0.354-7.765-1.017l-7.766,28.982
			C589.424,419.29,594.629,420,600,420c5.372,0,10.577-0.71,15.531-2.034L607.765,388.983z"/>
		<path fill="#EDDD53" d="M628.983,367.767c-1.381,5.163-4.101,9.777-7.769,13.445l21.213,21.214
			c7.337-7.337,12.778-16.567,15.538-26.893L628.983,367.767z"/>
		<path fill="#00BAAD" d="M592.233,388.982c-5.162-1.38-9.777-4.101-13.445-7.769l-21.213,21.213
			c7.337,7.338,16.566,12.779,26.893,15.539L592.233,388.982z"/>
		<path fill="#ADD45C" d="M642.426,402.427l-21.213-21.213c-3.669,3.668-8.282,6.389-13.445,7.769l7.767,28.983
			C625.859,415.206,635.089,409.765,642.426,402.427z"/>
		<circle fill="none" stroke="#3F3844" stroke-width="3" stroke-miterlimit="10" cx="622.246" cy="398.53" r="4.5"/>
		<circle fill="none" stroke="#3F3844" stroke-width="3" stroke-miterlimit="10" cx="577.755" cy="321.47" r="4.5"/>
		
			<line fill="none" stroke="#3F3844" stroke-width="3" stroke-miterlimit="10" x1="580.005" y1="325.366" x2="619.996" y2="394.634"/>
	</g>
</g>
<g id="Layer_1">
</g>
</svg>
