<?xml version="1.0" encoding="utf-8"?>
<!-- Generator: Adobe Illustrator 16.0.0, SVG Export Plug-In . SVG Version: 6.00 Build 0)  -->
<!DOCTYPE svg PUBLIC "-//W3C//DTD SVG 1.1//EN" "http://www.w3.org/Graphics/SVG/1.1/DTD/svg11.dtd">
<svg version="1.1" xmlns="http://www.w3.org/2000/svg" xmlns:xlink="http://www.w3.org/1999/xlink" x="0px" y="0px" width="720px"
	 height="480px" viewBox="0 0 720 480" enable-background="new 0 0 720 480" xml:space="preserve">
<g id="colors">
</g>
<g id="donuts" display="none">
</g>
<g id="hidden">
</g>
<g id="cuts">
</g>
<g id="guides" display="none">
</g>
<g id="harmonies">
	<g>
		<path fill="#900C3F" d="M77.574,77.572l21.213,21.214c3.668-3.668,8.283-6.389,13.445-7.769l-7.766-28.982
			C94.141,64.795,84.911,70.236,77.574,77.572z"/>
		<path fill="#FF5733" d="M127.767,91.018c5.163,1.38,9.777,4.101,13.445,7.769l21.214-21.214
			c-7.337-7.336-16.567-12.777-26.893-15.537L127.767,91.018z"/>
		<path fill="#3D3D6B" d="M89.999,120c0-2.686,0.355-5.288,1.018-7.765l-28.983-7.767c-1.324,4.955-2.034,10.16-2.034,15.531
			s0.71,10.576,2.034,15.531l28.983-7.767C90.354,125.288,89.999,122.686,89.999,120z"/>
		<path fill="#FFC300" d="M150,120c0,2.686-0.355,5.288-1.017,7.765l28.982,7.767C179.29,130.576,180,125.371,180,120
			s-0.71-10.576-2.034-15.531l-28.982,7.767C149.645,114.712,150,117.314,150,120z"/>
		<path fill="#511849" d="M91.017,112.232c1.38-5.162,4.101-9.776,7.769-13.445L77.572,77.574
			c-7.337,7.338-12.778,16.567-15.538,26.893L91.017,112.232z"/>
		<path fill="#FF8D1A" d="M162.427,77.574l-21.213,21.213c3.668,3.669,6.389,8.283,7.769,13.445l28.982-7.766
			C175.205,94.142,169.764,84.911,162.427,77.574z"/>
		<path fill="#2A7B9B" d="M98.785,141.212c-3.668-3.668-6.389-8.282-7.769-13.444l-28.982,7.766
			c2.76,10.325,8.201,19.555,15.538,26.893L98.785,141.212z"/>
		<path fill="#C70039" d="M112.234,91.017c2.478-0.661,5.079-1.017,7.765-1.017c2.687,0,5.289,0.355,7.766,1.017l7.766-28.982
			C130.576,60.71,125.371,60,119.999,60c-5.371,0-10.576,0.71-15.53,2.034L112.234,91.017z"/>
		<path fill="#57C785" d="M127.765,148.983c-2.477,0.661-5.079,1.017-7.766,1.017c-2.686,0-5.287-0.355-7.765-1.017l-7.766,28.982
			c4.954,1.324,10.159,2.034,15.53,2.034c5.372,0,10.577-0.71,15.531-2.034L127.765,148.983z"/>
		<path fill="#EDDD53" d="M148.982,127.768c-1.38,5.162-4.101,9.776-7.769,13.445l21.213,21.213
			c7.337-7.338,12.778-16.567,15.538-26.893L148.982,127.768z"/>
		<path fill="#00BAAD" d="M112.232,148.982c-5.162-1.38-9.777-4.101-13.445-7.769l-21.213,21.214
			c7.337,7.336,16.566,12.777,26.893,15.537L112.232,148.982z"/>
		<path fill="#ADD45C" d="M162.426,162.428l-21.214-21.214c-3.668,3.668-8.282,6.389-13.445,7.769l7.767,28.982
			C145.858,175.205,155.089,169.764,162.426,162.428z"/>
		<g>
			<circle fill="none" stroke="#3F3844" stroke-width="3" stroke-miterlimit="10" cx="120" cy="164.492" r="4.5"/>
			<circle fill="none" stroke="#3F3844" stroke-width="3" stroke-miterlimit="10" cx="120" cy="75.508" r="4.5"/>
			<circle fill="none" stroke="#3F3844" stroke-width="3" stroke-miterlimit="10" cx="158.53" cy="142.246" r="4.5"/>
			<circle fill="none" stroke="#3F3844" stroke-width="3" stroke-miterlimit="10" cx="81.469" cy="97.754" r="4.5"/>
			<line fill="none" stroke="#3F3844" stroke-width="3" stroke-miterlimit="10" x1="122.25" y1="79.405" x2="156.281" y2="138.35"/>
			<line fill="none" stroke="#3F3844" stroke-width="3" stroke-miterlimit="10" x1="85.365" y1="95.504" x2="116.103" y2="77.758"/>
			
				<line fill="none" stroke="#3F3844" stroke-width="3" stroke-miterlimit="10" x1="117.75" y1="160.596" x2="83.718" y2="101.649"/>
			
				<line fill="none" stroke="#3F3844" stroke-width="3" stroke-miterlimit="10" x1="154.634" y1="144.496" x2="123.896" y2="162.242"/>
		</g>
	</g>
	<g>
		<path fill="#900C3F" d="M317.575,77.571l21.213,21.215c3.668-3.669,8.282-6.389,13.445-7.769l-7.766-28.982
			C334.142,64.795,324.912,70.236,317.575,77.571z"/>
		<path fill="#FF5733" d="M367.768,91.017c5.163,1.381,9.777,4.102,13.444,7.77l21.215-21.214
			c-7.337-7.336-16.568-12.777-26.893-15.537L367.768,91.017z"/>
		<path fill="#3D3D6B" d="M330,120c0-2.686,0.355-5.288,1.018-7.765l-28.983-7.768c-1.324,4.956-2.034,10.161-2.034,15.531
			c0,5.371,0.71,10.577,2.034,15.532l28.983-7.767C330.354,125.288,330,122.686,330,120z"/>
		<path fill="#FFC300" d="M390.001,120c0,2.686-0.355,5.288-1.017,7.765l28.982,7.767c1.324-4.955,2.034-10.16,2.034-15.531
			s-0.71-10.576-2.034-15.531l-28.982,7.766C389.646,114.711,390.001,117.314,390.001,120z"/>
		<path fill="#511849" d="M331.018,112.232c1.38-5.162,4.101-9.776,7.768-13.445l-21.212-21.213
			c-7.337,7.338-12.778,16.567-15.538,26.893L331.018,112.232z"/>
		<path fill="#FF8D1A" d="M402.427,77.574l-21.212,21.213c3.668,3.669,6.389,8.283,7.769,13.445l28.982-7.766
			C415.206,94.142,409.764,84.911,402.427,77.574z"/>
		<path fill="#2A7B9B" d="M338.786,141.212c-3.668-3.668-6.389-8.282-7.769-13.444l-28.982,7.766
			c2.76,10.325,8.201,19.555,15.538,26.893L338.786,141.212z"/>
		<path fill="#C70039" d="M352.235,91.017C354.713,90.355,357.313,90,360,90c2.687-0.001,5.289,0.355,7.766,1.016l7.766-28.981
			C370.577,60.71,365.372,60,360,60c-5.371,0-10.576,0.709-15.53,2.034L352.235,91.017z"/>
		<path fill="#57C785" d="M367.766,148.983c-2.477,0.66-5.08,1.017-7.766,1.017c-2.687,0-5.287-0.356-7.765-1.017l-7.766,28.981
			C349.424,179.29,354.629,180,360,180c5.372,0,10.576-0.71,15.531-2.034L367.766,148.983z"/>
		<path fill="#EDDD53" d="M388.983,127.768c-1.38,5.161-4.101,9.776-7.769,13.445l21.212,21.213
			c7.338-7.338,12.779-16.567,15.539-26.893L388.983,127.768z"/>
		<path fill="#00BAAD" d="M352.233,148.982c-5.162-1.38-9.777-4.102-13.445-7.769l-21.213,21.214
			c7.337,7.336,16.566,12.777,26.893,15.537L352.233,148.982z"/>
		<path fill="#ADD45C" d="M402.427,162.428l-21.214-21.214c-3.668,3.668-8.282,6.389-13.445,7.769l7.767,28.982
			C385.858,175.205,395.09,169.764,402.427,162.428z"/>
		<g>
			<circle fill="none" stroke="#3F3844" stroke-width="3" stroke-miterlimit="10" cx="337.754" cy="158.531" r="4.5"/>
			<circle fill="none" stroke="#3F3844" stroke-width="3" stroke-miterlimit="10" cx="382.247" cy="81.469" r="4.5"/>
			<circle fill="none" stroke="#3F3844" stroke-width="3" stroke-miterlimit="10" cx="382.247" cy="158.53" r="4.5"/>
			<circle fill="none" stroke="#3F3844" stroke-width="3" stroke-miterlimit="10" cx="337.754" cy="81.469" r="4.5"/>
			
				<line fill="none" stroke="#3F3844" stroke-width="3" stroke-miterlimit="10" x1="382.247" y1="85.969" x2="382.246" y2="154.032"/>
			
				<line fill="none" stroke="#3F3844" stroke-width="3" stroke-miterlimit="10" x1="342.254" y1="81.469" x2="377.746" y2="81.469"/>
			
				<line fill="none" stroke="#3F3844" stroke-width="3" stroke-miterlimit="10" x1="337.754" y1="154.032" x2="337.755" y2="85.967"/>
			
				<line fill="none" stroke="#3F3844" stroke-width="3" stroke-miterlimit="10" x1="377.746" y1="158.531" x2="342.254" y2="158.531"/>
		</g>
	</g>
	<g>
		<path fill="#900C3F" d="M557.575,77.571l21.213,21.215c3.668-3.669,8.282-6.389,13.445-7.769l-7.766-28.982
			C574.142,64.795,564.912,70.236,557.575,77.571z"/>
		<path fill="#FF5733" d="M607.768,91.016c5.163,1.382,9.777,4.103,13.444,7.771l21.216-21.214
			c-7.338-7.336-16.569-12.777-26.894-15.537L607.768,91.016z"/>
		<path fill="#3D3D6B" d="M570,120c0-2.686,0.355-5.288,1.018-7.764l-28.983-7.769c-1.324,4.956-2.034,10.161-2.034,15.531
			c0,5.371,0.71,10.577,2.033,15.532l28.984-7.767C570.354,125.288,570,122.686,570,120z"/>
		<path fill="#FFC300" d="M630,120c0.001,2.686-0.354,5.288-1.016,7.765l28.982,7.767c1.324-4.955,2.034-10.16,2.034-15.531
			s-0.71-10.576-2.034-15.531l-28.982,7.766C629.646,114.711,630.001,117.314,630,120z"/>
		<path fill="#511849" d="M571.018,112.232c1.38-5.162,4.101-9.776,7.768-13.445l-21.212-21.213
			c-7.337,7.338-12.778,16.567-15.538,26.893L571.018,112.232z"/>
		<path fill="#FF8D1A" d="M642.427,77.574l-21.212,21.213c3.668,3.669,6.389,8.283,7.769,13.445l28.982-7.766
			C655.206,94.142,649.764,84.911,642.427,77.574z"/>
		<path fill="#2A7B9B" d="M578.786,141.212c-3.668-3.668-6.389-8.282-7.769-13.444l-28.982,7.766
			c2.76,10.325,8.201,19.555,15.538,26.893L578.786,141.212z"/>
		<path fill="#C70039" d="M592.235,91.017C594.713,90.355,597.313,90,600,90c2.687-0.001,5.289,0.355,7.766,1.016l7.766-28.981
			C610.577,60.71,605.372,60,600,60c-5.371,0-10.576,0.709-15.53,2.034L592.235,91.017z"/>
		<path fill="#57C785" d="M607.766,148.983c-2.477,0.659-5.08,1.017-7.766,1.017c-2.687,0-5.287-0.356-7.765-1.017l-7.766,28.981
			C589.424,179.29,594.629,180,600,180c5.372,0,10.576-0.71,15.531-2.034L607.766,148.983z"/>
		<path fill="#EDDD53" d="M628.983,127.768c-1.38,5.161-4.101,9.776-7.769,13.445l21.212,21.213
			c7.338-7.338,12.779-16.567,15.539-26.893L628.983,127.768z"/>
		<path fill="#00BAAD" d="M592.233,148.982c-5.162-1.38-9.777-4.102-13.445-7.769l-21.213,21.214
			c7.337,7.336,16.566,12.777,26.893,15.537L592.233,148.982z"/>
		<path fill="#ADD45C" d="M642.427,162.428l-21.214-21.214c-3.668,3.668-8.282,6.389-13.445,7.769l7.767,28.982
			C625.858,175.205,635.09,169.764,642.427,162.428z"/>
		<g>
			<circle fill="none" stroke="#3F3844" stroke-width="3" stroke-miterlimit="10" cx="561.469" cy="142.246" r="4.5"/>
			<circle fill="none" stroke="#3F3844" stroke-width="3" stroke-miterlimit="10" cx="638.531" cy="97.754" r="4.5"/>
			<circle fill="none" stroke="#3F3844" stroke-width="3" stroke-miterlimit="10" cx="600.001" cy="164.491" r="4.5"/>
			<circle fill="none" stroke="#3F3844" stroke-width="3" stroke-miterlimit="10" cx="600" cy="75.508" r="4.5"/>
			
				<line fill="none" stroke="#3F3844" stroke-width="3" stroke-miterlimit="10" x1="636.282" y1="101.651" x2="602.25" y2="160.596"/>
			
				<line fill="none" stroke="#3F3844" stroke-width="3" stroke-miterlimit="10" x1="603.896" y1="77.758" x2="634.634" y2="95.504"/>
			
				<line fill="none" stroke="#3F3844" stroke-width="3" stroke-miterlimit="10" x1="563.718" y1="138.35" x2="597.752" y2="79.403"/>
			
				<line fill="none" stroke="#3F3844" stroke-width="3" stroke-miterlimit="10" x1="596.103" y1="162.242" x2="565.365" y2="144.496"/>
		</g>
	</g>
	<g>
		<path fill="#900C3F" d="M77.575,317.571l21.213,21.215c3.668-3.669,8.282-6.389,13.445-7.769l-7.766-28.982
			C94.142,304.795,84.912,310.236,77.575,317.571z"/>
		<path fill="#FF5733" d="M127.767,331.016c5.164,1.382,9.778,4.103,13.445,7.771l21.215-21.214
			c-7.337-7.336-16.568-12.777-26.893-15.537L127.767,331.016z"/>
		<path fill="#3D3D6B" d="M90,360c0-2.686,0.355-5.288,1.018-7.764l-28.983-7.769C60.71,349.424,60,354.629,60,359.999
			c0,5.371,0.71,10.577,2.033,15.533l28.984-7.768C90.354,365.288,90,362.686,90,360z"/>
		<path fill="#FFC300" d="M150,359.999c0.001,2.687-0.354,5.289-1.016,7.766l28.982,7.767c1.324-4.955,2.034-10.16,2.034-15.531
			s-0.71-10.576-2.034-15.531l-28.982,7.766C149.646,354.711,150.001,357.314,150,359.999z"/>
		<path fill="#511849" d="M91.018,352.232c1.38-5.162,4.101-9.776,7.768-13.445l-21.212-21.213
			c-7.337,7.338-12.778,16.567-15.538,26.893L91.018,352.232z"/>
		<path fill="#FF8D1A" d="M162.427,317.574l-21.212,21.213c3.668,3.669,6.389,8.283,7.769,13.445l28.982-7.766
			C175.206,334.142,169.764,324.911,162.427,317.574z"/>
		<path fill="#2A7B9B" d="M98.786,381.212c-3.668-3.668-6.389-8.282-7.769-13.444l-28.982,7.766
			c2.76,10.325,8.201,19.555,15.538,26.893L98.786,381.212z"/>
		<path fill="#C70039" d="M112.235,331.017c2.478-0.661,5.078-1.017,7.765-1.017c2.687-0.001,5.289,0.355,7.766,1.016l7.766-28.981
			C130.577,300.71,125.372,300,120,300c-5.371,0-10.576,0.709-15.53,2.034L112.235,331.017z"/>
		<path fill="#57C785" d="M127.766,388.983c-2.478,0.659-5.08,1.017-7.766,1.017c-2.687,0-5.287-0.356-7.765-1.017l-7.766,28.981
			C109.424,419.29,114.629,420,120,420c5.372,0,10.576-0.71,15.531-2.034L127.766,388.983z"/>
		<path fill="#EDDD53" d="M148.983,367.768c-1.38,5.161-4.101,9.776-7.769,13.445l21.212,21.213
			c7.338-7.338,12.779-16.567,15.539-26.893L148.983,367.768z"/>
		<path fill="#00BAAD" d="M112.233,388.982c-5.162-1.38-9.777-4.102-13.445-7.769l-21.213,21.214
			c7.337,7.336,16.566,12.777,26.893,15.537L112.233,388.982z"/>
		<path fill="#ADD45C" d="M162.427,402.428l-21.215-21.214c-3.667,3.668-8.281,6.389-13.444,7.769l7.767,28.982
			C145.858,415.205,155.09,409.764,162.427,402.428z"/>
		<g>
			<circle fill="none" stroke="#3F3844" stroke-width="3" stroke-miterlimit="10" cx="75.508" cy="359.999" r="4.5"/>
			<path fill="none" stroke="#3F3844" stroke-width="3" stroke-miterlimit="10" d="M164.492,364.5c-2.486,0-4.499-2.015-4.5-4.499
				c0.001-2.486,2.015-4.501,4.5-4.502c2.484,0.002,4.501,2.016,4.501,4.501S166.977,364.5,164.492,364.5z"/>
			<circle fill="none" stroke="#3F3844" stroke-width="3" stroke-miterlimit="10" cx="97.755" cy="398.53" r="4.5"/>
			<circle fill="none" stroke="#3F3844" stroke-width="3" stroke-miterlimit="10" cx="142.246" cy="321.469" r="4.5"/>
			
				<line fill="none" stroke="#3F3844" stroke-width="3" stroke-miterlimit="10" x1="160.596" y1="362.25" x2="101.65" y2="396.281"/>
			
				<line fill="none" stroke="#3F3844" stroke-width="3" stroke-miterlimit="10" x1="144.495" y1="325.365" x2="162.242" y2="356.103"/>
			
				<line fill="none" stroke="#3F3844" stroke-width="3" stroke-miterlimit="10" x1="79.403" y1="357.75" x2="138.352" y2="323.718"/>
			
				<line fill="none" stroke="#3F3844" stroke-width="3" stroke-miterlimit="10" x1="95.504" y1="394.634" x2="77.757" y2="363.896"/>
		</g>
	</g>
	<g>
		<path fill="#900C3F" d="M317.574,317.572l21.213,21.214c3.668-3.669,8.281-6.389,13.445-7.769l-7.766-28.982
			C334.141,304.795,324.911,310.236,317.574,317.572z"/>
		<path fill="#FF5733" d="M367.766,331.016c5.164,1.383,9.778,4.103,13.444,7.771l21.216-21.214
			c-7.337-7.336-16.568-12.777-26.893-15.537L367.766,331.016z"/>
		<path fill="#3D3D6B" d="M329.999,360c0-2.686,0.354-5.288,1.018-7.764l-28.983-7.769c-1.324,4.956-2.035,10.161-2.034,15.531
			c0,5.371,0.71,10.577,2.033,15.533l28.984-7.768C330.354,365.288,329.999,362.686,329.999,360z"/>
		<path fill="#FFC300" d="M389.999,359.999c0.001,2.687-0.354,5.288-1.016,7.766l28.982,7.768C419.29,370.576,420,365.371,420,360
			c0-5.37-0.71-10.576-2.034-15.531l-28.982,7.766C389.645,354.711,390,357.314,389.999,359.999z"/>
		<path fill="#511849" d="M331.017,352.232c1.38-5.162,4.101-9.776,7.768-13.445l-21.212-21.213
			c-7.337,7.338-12.778,16.567-15.538,26.893L331.017,352.232z"/>
		<path fill="#FF8D1A" d="M402.426,317.574l-21.212,21.213c3.668,3.669,6.389,8.283,7.769,13.445l28.982-7.766
			C415.205,334.142,409.762,324.911,402.426,317.574z"/>
		<path fill="#2A7B9B" d="M338.785,381.212c-3.668-3.668-6.389-8.282-7.77-13.444l-28.981,7.766
			c2.76,10.325,8.2,19.555,15.538,26.893L338.785,381.212z"/>
		<path fill="#C70039" d="M352.234,331.017c2.478-0.661,5.078-1.017,7.765-1.017c2.687-0.001,5.288,0.355,7.766,1.016l7.766-28.981
			c-4.955-1.324-10.159-2.034-15.531-2.034c-5.371,0-10.576,0.709-15.53,2.034L352.234,331.017z"/>
		<path fill="#57C785" d="M367.765,388.983c-2.478,0.659-5.08,1.018-7.766,1.017c-2.687,0-5.287-0.356-7.765-1.016l-7.766,28.981
			c4.954,1.324,10.159,2.034,15.53,2.034c5.372,0,10.576-0.71,15.531-2.034L367.765,388.983z"/>
		<path fill="#EDDD53" d="M388.982,367.768c-1.38,5.162-4.101,9.776-7.769,13.445l21.212,21.213
			c7.338-7.338,12.779-16.567,15.539-26.893L388.982,367.768z"/>
		<path fill="#00BAAD" d="M352.232,388.983c-5.162-1.381-9.777-4.103-13.445-7.77l-21.213,21.214
			c7.337,7.336,16.566,12.777,26.893,15.537L352.232,388.983z"/>
		<path fill="#ADD45C" d="M402.426,402.428l-21.215-21.215c-3.667,3.669-8.281,6.39-13.444,7.77l7.767,28.982
			C385.857,415.205,395.089,409.764,402.426,402.428z"/>
		<g>
			<circle fill="none" stroke="#3F3844" stroke-width="3" stroke-miterlimit="10" cx="321.468" cy="337.753" r="4.5"/>
			<circle fill="none" stroke="#3F3844" stroke-width="3" stroke-miterlimit="10" cx="398.531" cy="382.245" r="4.501"/>
			<path fill="none" stroke="#3F3844" stroke-width="3" stroke-miterlimit="10" d="M323.719,386.143
				c-2.152,1.242-4.905,0.505-6.148-1.647c-1.242-2.152-0.505-4.903,1.649-6.146c2.15-1.242,4.902-0.505,6.146,1.646
				C326.607,382.148,325.871,384.899,323.719,386.143z"/>
			<circle fill="none" stroke="#3F3844" stroke-width="3" stroke-miterlimit="10" cx="398.53" cy="337.753" r="4.5"/>
			
				<line fill="none" stroke="#3F3844" stroke-width="3" stroke-miterlimit="10" x1="394.031" y1="382.246" x2="325.967" y2="382.245"/>
			
				<line fill="none" stroke="#3F3844" stroke-width="3" stroke-miterlimit="10" x1="398.529" y1="342.253" x2="398.53" y2="377.745"/>
			
				<line fill="none" stroke="#3F3844" stroke-width="3" stroke-miterlimit="10" x1="325.966" y1="337.753" x2="394.033" y2="337.754"/>
			
				<line fill="none" stroke="#3F3844" stroke-width="3" stroke-miterlimit="10" x1="321.468" y1="377.745" x2="321.467" y2="342.253"/>
		</g>
	</g>
	<g>
		<path fill="#900C3F" d="M557.575,317.571l21.213,21.215c3.668-3.669,8.281-6.388,13.445-7.769l-7.766-28.982
			C574.142,304.795,564.912,310.236,557.575,317.571z"/>
		<path fill="#FF5733" d="M607.767,331.016c5.164,1.383,9.778,4.103,13.444,7.771l21.217-21.214
			c-7.338-7.336-16.569-12.777-26.894-15.537L607.767,331.016z"/>
		<path fill="#3D3D6B" d="M570,360c0-2.686,0.354-5.288,1.018-7.764l-28.983-7.769c-1.324,4.956-2.035,10.161-2.034,15.531
			c0,5.371,0.71,10.577,2.033,15.533l28.984-7.768C570.354,365.288,570,362.686,570,360z"/>
		<path fill="#FFC300" d="M630,359.999c0.001,2.687-0.354,5.288-1.016,7.766l28.982,7.768c1.324-4.956,2.034-10.161,2.034-15.532
			s-0.71-10.576-2.034-15.531l-28.982,7.766C629.646,354.711,630.001,357.314,630,359.999z"/>
		<path fill="#511849" d="M571.018,352.232c1.38-5.162,4.101-9.776,7.768-13.445l-21.212-21.213
			c-7.337,7.338-12.778,16.567-15.538,26.893L571.018,352.232z"/>
		<path fill="#FF8D1A" d="M642.427,317.574l-21.212,21.213c3.668,3.669,6.389,8.283,7.769,13.445l28.982-7.766
			C655.206,334.142,649.763,324.911,642.427,317.574z"/>
		<path fill="#2A7B9B" d="M578.786,381.212c-3.668-3.668-6.389-8.282-7.77-13.444l-28.981,7.766
			c2.76,10.325,8.2,19.555,15.538,26.893L578.786,381.212z"/>
		<path fill="#C70039" d="M592.235,331.017c2.478-0.661,5.078-1.017,7.765-1.017c2.687-0.001,5.288,0.355,7.766,1.016l7.766-28.981
			C610.576,300.71,605.372,300,600,300c-5.371,0-10.576,0.709-15.53,2.034L592.235,331.017z"/>
		<path fill="#57C785" d="M607.766,388.983c-2.478,0.659-5.08,1.017-7.766,1.017c-2.687,0-5.287-0.356-7.765-1.017l-7.766,28.981
			C589.424,419.29,594.629,420,600,420c5.372,0,10.576-0.71,15.531-2.034L607.766,388.983z"/>
		<path fill="#EDDD53" d="M628.983,367.768c-1.38,5.161-4.101,9.776-7.769,13.445l21.212,21.213
			c7.338-7.338,12.779-16.567,15.539-26.893L628.983,367.768z"/>
		<path fill="#00BAAD" d="M592.232,388.983c-5.161-1.381-9.776-4.103-13.444-7.77l-21.213,21.214
			c7.337,7.336,16.566,12.777,26.893,15.537L592.232,388.983z"/>
		<path fill="#ADD45C" d="M642.427,402.428l-21.215-21.215c-3.667,3.669-8.281,6.39-13.444,7.77l7.767,28.982
			C625.858,415.205,635.09,409.764,642.427,402.428z"/>
		<g>
			<circle fill="none" stroke="#3F3844" stroke-width="3" stroke-miterlimit="10" cx="577.754" cy="321.467" r="4.5"/>
			<path fill="none" stroke="#3F3844" stroke-width="3" stroke-miterlimit="10" d="M618.35,400.78
				c-1.244-2.153-0.505-4.903,1.646-6.146c2.154-1.243,4.905-0.506,6.149,1.646c1.24,2.152,0.504,4.905-1.647,6.148
				C622.344,403.671,619.591,402.932,618.35,400.78z"/>
			<circle fill="none" stroke="#3F3844" stroke-width="3" stroke-miterlimit="10" cx="555.509" cy="360" r="4.5"/>
			<circle fill="none" stroke="#3F3844" stroke-width="3" stroke-miterlimit="10" cx="644.492" cy="359.999" r="4.5"/>
			
				<line fill="none" stroke="#3F3844" stroke-width="3" stroke-miterlimit="10" x1="618.35" y1="396.281" x2="559.404" y2="362.248"/>
			
				<line fill="none" stroke="#3F3844" stroke-width="3" stroke-miterlimit="10" x1="642.241" y1="363.896" x2="624.496" y2="394.633"/>
			
				<line fill="none" stroke="#3F3844" stroke-width="3" stroke-miterlimit="10" x1="581.649" y1="323.717" x2="640.598" y2="357.751"/>
			
				<line fill="none" stroke="#3F3844" stroke-width="3" stroke-miterlimit="10" x1="557.758" y1="356.102" x2="575.504" y2="325.364"/>
		</g>
	</g>
</g>
<g id="Layer_1">
</g>
</svg>
