<?xml version="1.0" encoding="utf-8"?>
<!-- Generator: Adobe Illustrator 16.0.0, SVG Export Plug-In . SVG Version: 6.00 Build 0)  -->
<!DOCTYPE svg PUBLIC "-//W3C//DTD SVG 1.1//EN" "http://www.w3.org/Graphics/SVG/1.1/DTD/svg11.dtd">
<svg version="1.1" id="Layer_1" xmlns="http://www.w3.org/2000/svg" xmlns:xlink="http://www.w3.org/1999/xlink" x="0px" y="0px"
	 width="24px" height="24px" viewBox="-3.5 -6 24 24" enable-background="new -3.5 -6 24 24" xml:space="preserve">
<path fill="#C3C3C3" d="M12.5,5.5H7v-2C7,1.57,5.43,0,3.5,0S0,1.57,0,3.5v2c0,0.552,0.448,1,1,1s1-0.448,1-1v-2
	C2,2.673,2.673,2,3.5,2S5,2.673,5,3.5v2H4.5c-0.553,0-1,0.447-1,1V11c0,0.553,0.447,1,1,1h8c0.553,0,1-0.447,1-1V6.5
	C13.5,5.947,13.053,5.5,12.5,5.5z"/>
</svg>
